#!OML:ASF X:\für Bonn\!DataBase\2005_08_10_Bjorn_Final\c3d\bjorn.ASF
:FULLY-SPECIFIED
:DEGREES
151
root 0.322691 18.5981 4.86792 -194.285 -0.57315 180.12
lowerback 8.39233 2.59688 0.278641
upperback 14.3242 1.01084 -4.0691
thorax 10.7991 -0.353875 -4.77941
lowerneck -2.52601 10.0591 -9.12963
upperneck 5.75327 13.7218 -5.55888
head 2.0267 6.28647 0.0292399
rclavicle -1.03368e-014 3.18055e-015
rhumerus -30.9185 12.3637 -59.4552
rradius 75.107
rwrist -5.39519
rhand -14.975 23.0925
rfingers 7.12502
rthumb 11.1889 -6.58912
lclavicle -1.03368e-014 3.18055e-015
lhumerus -347.66 -32.2348 -317.32
lradius 83.6542
lwrist -8.7917
lhand -50.5552 -16.1221
lfingers 7.12502
lthumb -23.1219 12.5104
rfemur -12.7848 -7.8096 18.2969
rtibia 38.4794
rfoot -12.5494 13.1673
rtoes -14.1212
lfemur -24.8219 6.27731 -10.9128
ltibia 89.8285
lfoot 9.79109 -11.5235
ltoes -24.7499
152
root 0.277289 18.6065 4.9786 -193.326 -0.53756 179.995
lowerback 8.08051 2.44024 0.277498
upperback 14.3457 0.81829 -3.95964
thorax 10.9849 -0.443054 -4.66294
lowerneck -2.56662 9.96327 -8.93723
upperneck 5.48546 13.5976 -5.73389
head 1.97353 6.24674 -0.0584312
rclavicle -1.35174e-014 -2.54444e-014
rhumerus -31.9605 12.2165 -60.9849
rradius 75.5556
rwrist -5.58884
rhand -14.9858 23.0151
rfingers 7.12502
rthumb 11.1784 -6.66715
lclavicle -1.35174e-014 -2.54444e-014
lhumerus -349.67 -32.6894 -316.711
lradius 83.6779
lwrist -8.44867
lhand -50.8458 -16.3613
lfingers 7.12502
lthumb -23.4007 12.236
rfemur -14.2172 -7.56198 18.1998
rtibia 38.4342
rfoot -12.2119 13.1121
rtoes -14.3523
lfemur -23.4215 5.61763 -11.1746
ltibia 88.5624
lfoot 9.44295 -10.7873
ltoes -26.5124
153
root 0.231101 18.6024 5.08722 -192.403 -0.492225 179.859
lowerback 7.70425 2.29736 0.278501
upperback 14.4198 0.63146 -3.85413
thorax 11.2747 -0.532677 -4.55916
lowerneck -2.62397 9.88093 -8.79965
upperneck 5.21174 13.4936 -5.76907
head 1.90654 6.22296 -0.0950652
rclavicle -1.74931e-014 -1.90833e-014
rhumerus -32.766 11.7961 -62.5513
rradius 75.8251
rwrist -5.65058
rhand -14.8426 22.6932
rfingers 7.12502
rthumb 11.3166 -6.98148
lclavicle -1.74931e-014 -1.90833e-014
lhumerus -351.722 -33.077 -315.993
lradius 83.7329
lwrist -7.93699
lhand -51.13 -16.6672
lfingers 7.12502
lthumb -23.6733 11.8951
rfemur -15.6936 -7.26583 18.081
rtibia 38.5398
rfoot -11.8977 13.0325
rtoes -14.4247
lfemur -21.8818 4.9696 -11.4952
ltibia 86.9691
lfoot 8.80384 -9.91839
ltoes -28.1605
154
root 0.184413 18.5858 5.19211 -191.547 -0.456314 179.712
lowerback 7.31846 2.15106 0.251833
upperback 14.5194 0.43023 -3.73282
thorax 11.6008 -0.636009 -4.42748
lowerneck -2.65373 9.81637 -8.82609
upperneck 4.91006 13.4075 -5.62379
head 1.80097 6.2138 -0.0564663
rclavicle 3.97569e-016 -1.59028e-015
rhumerus -33.4347 11.234 -64.0927
rradius 75.939
rwrist -5.44314
rhand -14.6605 22.1836
rfingers 7.12502
rthumb 11.4921 -7.48141
lclavicle 3.97569e-016 -1.59028e-015
lhumerus -353.85 -33.4333 -315.077
lradius 83.7699
lwrist -7.33539
lhand -51.3122 -16.7507
lfingers 7.12502
lthumb -23.8481 11.7889
rfemur -17.1825 -6.98959 17.919
rtibia 38.8281
rfoot -11.5897 12.9782
rtoes -13.953
lfemur -20.1765 4.29322 -11.8865
ltibia 85.0659
lfoot 8.03844 -8.99549
ltoes -29.2088
155
root 0.13727 18.5566 5.29539 -190.771 -0.411951 179.54
lowerback 6.96916 2.02295 0.228239
upperback 14.6404 0.241647 -3.62645
thorax 11.9364 -0.736219 -4.31788
lowerneck -2.63643 9.74243 -8.87665
upperneck 4.57632 13.3008 -5.3893
head 1.66966 6.2002 0.00807447
rclavicle 5.56597e-015 -3.02153e-014
rhumerus -34.0347 10.5494 -65.6669
rradius 75.8884
rwrist -5.13496
rhand -14.5389 21.7052
rfingers 7.12502
rthumb 11.6094 -7.95322
lclavicle 5.56597e-015 -3.02153e-014
lhumerus -356.034 -33.6691 -313.912
lradius 83.6413
lwrist -6.80009
lhand -51.2623 -16.7282
lfingers 7.12502
lthumb -23.8002 11.8176
rfemur -18.6852 -6.66783 17.7192
rtibia 39.3009
rfoot -11.3513 12.8761
rtoes -13.3251
lfemur -18.3447 3.64062 -12.3351
ltibia 82.9208
lfoot 7.09904 -7.92185
ltoes -30.5378
156
root 0.0904255 18.5143 5.3983 -190.099 -0.353071 179.297
lowerback 6.70569 1.9123 0.111301
upperback 14.766 0.064892 -3.52421
thorax 12.2273 -0.846168 -4.16137
lowerneck -2.54894 9.66126 -8.85807
upperneck 4.22504 13.1728 -5.22898
head 1.53203 6.17488 0.0354697
rclavicle 9.54166e-015 2.94201e-014
rhumerus -34.5965 9.86663 -67.214
rradius 75.6592
rwrist -4.87938
rhand -14.4724 21.323
rfingers 7.12502
rthumb 11.6736 -8.33174
lclavicle 9.54166e-015 2.94201e-014
lhumerus -358.333 -33.7032 -312.443
lradius 83.3217
lwrist -6.46136
lhand -51.0591 -16.6239
lfingers 7.12502
lthumb -23.6053 11.9472
rfemur -20.1753 -6.30149 17.4195
rtibia 39.936
rfoot -11.0939 12.7356
rtoes -12.4741
lfemur -16.3806 3.02444 -12.8916
ltibia 80.5757
lfoot 6.12172 -7.19989
ltoes -31.2047
157
root 0.0427121 18.4626 5.50233 -189.541 -0.247311 179.1
lowerback 6.56251 1.82204 0.0619734
upperback 14.9005 -0.0986573 -3.40819
thorax 12.4621 -0.948489 -4.02703
lowerneck -2.38822 9.55289 -8.7832
upperneck 3.77945 12.9929 -5.16173
head 1.3637 6.12665 0.01932
rclavicle -3.97569e-016 8.74653e-015
rhumerus -35.0429 8.98961 -68.7308
rradius 75.2052
rwrist -4.46474
rhand -14.3714 21.1013
rfingers 7.12502
rthumb 11.771 -8.54791
lclavicle -3.97569e-016 8.74653e-015
lhumerus -360.67 -33.5939 -310.788
lradius 82.9215
lwrist -6.34894
lhand -50.8601 -16.4307
lfingers 7.12502
lthumb -23.4144 12.1648
rfemur -21.6221 -5.92345 17.1621
rtibia 40.6878
rfoot -10.8289 12.5993
rtoes -11.4844
lfemur -14.287 2.47292 -13.4048
ltibia 78.0741
lfoot 5.00967 -6.59573
ltoes -31.8146
